STARTFONT 2.1
COMMENT
COMMENT Converted from OpenType font "Q:\font stuff\winfont\RAZER.ttf" by "otf2bdf 3.0".
COMMENT
FONT -FreeType-Razer Regular-Medium-I-Normal--34-340-72-72-P-159-ISO10646-1
SIZE 34 72 72
FONTBOUNDINGBOX 25 42 0 -8
STARTPROPERTIES 19
FOUNDRY "FreeType"
FAMILY_NAME "Razer Regular"
WEIGHT_NAME "Medium"
SLANT "I"
SETWIDTH_NAME "Normal"
ADD_STYLE_NAME ""
PIXEL_SIZE 28
POINT_SIZE 340
RESOLUTION_X 72
RESOLUTION_Y 72
SPACING "P"
AVERAGE_WIDTH 159
CHARSET_REGISTRY "ISO10646"
CHARSET_ENCODING "1"
FONT_ASCENT 34
FONT_DESCENT 7
COPYRIGHT "(r) (c) 2001 [T26] Chicago www.t26.com 773.862.1201 T0527 ID#5109383 designer: Jason Koerner"
_OTF_FONTFILE "Q:\font stuff\winfont\RAZER.ttf"
_OTF_PSNAME "RazerRegular"
ENDPROPERTIES
CHARS 198
STARTCHAR 0020
ENCODING 32
SWIDTH 470 0
DWIDTH 16 0
BBX 0 0 0 0
BITMAP
ENDCHAR
STARTCHAR 0021
ENCODING 33
SWIDTH 205 0
DWIDTH 7 0
BBX 4 19 2 0
BITMAP
E0
F0
F0
F0
F0
F0
F0
F0
F0
F0
E0
00
00
00
00
E0
F0
F0
E0
ENDCHAR
STARTCHAR 0022
ENCODING 34
SWIDTH 382 0
DWIDTH 13 0
BBX 10 8 2 11
BITMAP
E380
F3C0
F3C0
F3C0
F3C0
F3C0
F3C0
E380
ENDCHAR
STARTCHAR 0023
ENCODING 35
SWIDTH 647 0
DWIDTH 22 0
BBX 18 19 2 0
BITMAP
0E1C00
0F1E00
0F1E00
1F3E00
FFFFC0
FFFFC0
FFFFC0
FFFFC0
1F3E00
0F1E00
1F3E00
FFFFC0
FFFFC0
FFFFC0
FFFFC0
1F3E00
0F1E00
0F1E00
0E1C00
ENDCHAR
STARTCHAR 0024
ENCODING 36
SWIDTH 647 0
DWIDTH 22 0
BBX 19 27 2 -4
BITMAP
0E1C00
0F1E00
0F1E00
1F3E00
FFFFC0
FFFFE0
FFFFE0
FFFFC0
F00000
F00000
F00000
FFFFC0
FFFFE0
FFFFE0
FFFFE0
0003E0
0001E0
0001E0
0003E0
FFFFE0
FFFFE0
FFFFE0
FFFFC0
1F3E00
0F1E00
0F1E00
0E1C00
ENDCHAR
STARTCHAR 0025
ENCODING 37
SWIDTH 647 0
DWIDTH 22 0
BBX 19 19 2 0
BITMAP
E01C00
F01E00
F01E00
E01E00
001E00
001E00
003E00
0FFE00
0FFE00
0FFE00
0FFC00
0F0000
0F0000
0F0000
0F0000
0F01C0
0F01E0
0F01E0
0E01C0
ENDCHAR
STARTCHAR 0026
ENCODING 38
SWIDTH 647 0
DWIDTH 22 0
BBX 20 19 2 0
BITMAP
00FFE0
00FFF0
00FFF0
00FFF0
00F1F0
00F0F0
01F1F0
FFFFF0
FFFFF0
FFFFF0
FFFFE0
F1F000
F0F000
F0F000
F1F000
FFFFE0
FFFFF0
FFFFF0
FFFFE0
ENDCHAR
STARTCHAR 0027
ENCODING 39
SWIDTH 205 0
DWIDTH 7 0
BBX 4 8 2 11
BITMAP
E0
F0
F0
F0
F0
F0
F0
E0
ENDCHAR
STARTCHAR 0028
ENCODING 40
SWIDTH 323 0
DWIDTH 11 0
BBX 8 34 2 -8
BITMAP
FE
FF
FF
FE
F0
F0
F0
F0
F0
F0
F0
F0
F0
F0
F0
F0
F0
F0
F0
F0
F0
F0
F0
F0
F0
F0
F0
F0
F0
F0
FE
FF
FF
FE
ENDCHAR
STARTCHAR 0029
ENCODING 41
SWIDTH 323 0
DWIDTH 11 0
BBX 8 34 2 -8
BITMAP
FE
FF
FF
FF
1F
0F
0F
0F
0F
0F
0F
0F
0F
0F
0F
0F
0F
0F
0F
0F
0F
0F
0F
0F
0F
0F
0F
0F
0F
1F
FF
FF
FF
FE
ENDCHAR
STARTCHAR 002A
ENCODING 42
SWIDTH 382 0
DWIDTH 13 0
BBX 10 10 2 9
BITMAP
6300
F780
FFC0
FF80
7F00
7F00
FF80
FF80
E780
4300
ENDCHAR
STARTCHAR 002B
ENCODING 43
SWIDTH 411 0
DWIDTH 14 0
BBX 12 11 2 4
BITMAP
0E00
0F00
0F00
1F00
FFE0
FFF0
FFF0
FFE0
1F00
0F00
0E00
ENDCHAR
STARTCHAR 002C
ENCODING 44
SWIDTH 323 0
DWIDTH 11 0
BBX 8 8 2 0
BITMAP
0E
0F
0F
1F
FF
FF
FF
FE
ENDCHAR
STARTCHAR 002D
ENCODING 45
SWIDTH 411 0
DWIDTH 14 0
BBX 11 3 2 8
BITMAP
FFE0
FFE0
FFE0
ENDCHAR
STARTCHAR 002E
ENCODING 46
SWIDTH 205 0
DWIDTH 7 0
BBX 4 4 2 0
BITMAP
E0
F0
F0
E0
ENDCHAR
STARTCHAR 002F
ENCODING 47
SWIDTH 617 0
DWIDTH 21 0
BBX 17 19 2 0
BITMAP
000100
000380
000780
000F80
001F00
003E00
007C00
00F800
01F000
03E000
07C000
0F8000
1F0000
3E0000
7C0000
F80000
F00000
E00000
600000
ENDCHAR
STARTCHAR 0030
ENCODING 48
SWIDTH 647 0
DWIDTH 22 0
BBX 19 19 2 0
BITMAP
FFFFC0
FFFFE0
FFFFE0
FFFFE0
F003E0
F001E0
F001E0
F001E0
F001E0
F001E0
F001E0
F001E0
F001E0
F001E0
F003E0
FFFFE0
FFFFE0
FFFFE0
FFFFC0
ENDCHAR
STARTCHAR 0031
ENCODING 49
SWIDTH 647 0
DWIDTH 22 0
BBX 18 19 2 0
BITMAP
FFFC00
FFFE00
FFFE00
FFFE00
003E00
001E00
001E00
001E00
001E00
001E00
001E00
001E00
001E00
001E00
003E00
FFFFC0
FFFFC0
FFFFC0
FFFFC0
ENDCHAR
STARTCHAR 0032
ENCODING 50
SWIDTH 647 0
DWIDTH 22 0
BBX 19 19 2 0
BITMAP
FFFFC0
FFFFE0
FFFFE0
FFFFE0
0003E0
0001E0
0001E0
0003E0
FFFFE0
FFFFE0
FFFFE0
FFFFC0
F00000
F00000
F00000
FFFFC0
FFFFE0
FFFFE0
FFFFC0
ENDCHAR
STARTCHAR 0033
ENCODING 51
SWIDTH 647 0
DWIDTH 22 0
BBX 19 19 2 0
BITMAP
FFFFC0
FFFFE0
FFFFE0
FFFFE0
0003E0
0001E0
0001E0
0003E0
FFFFE0
FFFFE0
FFFFE0
FFFFE0
0003E0
0001E0
0003E0
FFFFE0
FFFFE0
FFFFE0
FFFFC0
ENDCHAR
STARTCHAR 0034
ENCODING 52
SWIDTH 647 0
DWIDTH 22 0
BBX 19 23 2 -4
BITMAP
E001C0
F001E0
F001E0
F001E0
F001E0
F001E0
F001E0
F001E0
F001E0
F001E0
F003E0
FFFFE0
FFFFE0
FFFFE0
FFFFE0
0003E0
0001E0
0001E0
0001E0
0001E0
0001E0
0001E0
0001C0
ENDCHAR
STARTCHAR 0035
ENCODING 53
SWIDTH 647 0
DWIDTH 22 0
BBX 19 19 2 0
BITMAP
FFFFC0
FFFFE0
FFFFE0
FFFFC0
F00000
F00000
F00000
FFFFC0
FFFFE0
FFFFE0
FFFFE0
0003E0
0001E0
0001E0
0003E0
FFFFE0
FFFFE0
FFFFE0
FFFFC0
ENDCHAR
STARTCHAR 0036
ENCODING 54
SWIDTH 647 0
DWIDTH 22 0
BBX 19 19 2 0
BITMAP
FFFFC0
FFFFE0
FFFFE0
FFFFC0
F00000
F00000
F00000
FFFFC0
FFFFE0
FFFFE0
FFFFE0
F003E0
F001E0
F001E0
F003E0
FFFFE0
FFFFE0
FFFFE0
FFFFC0
ENDCHAR
STARTCHAR 0037
ENCODING 55
SWIDTH 647 0
DWIDTH 22 0
BBX 19 19 2 0
BITMAP
FFFFC0
FFFFE0
FFFFE0
FFFFE0
0003E0
0001E0
0001E0
0001E0
0001E0
0001E0
0001E0
0001E0
0001E0
0001E0
0001E0
0001E0
0001E0
0001E0
0001C0
ENDCHAR
STARTCHAR 0038
ENCODING 56
SWIDTH 647 0
DWIDTH 22 0
BBX 19 19 2 0
BITMAP
FFFFC0
FFFFE0
FFFFE0
FFFFE0
F003E0
F001E0
F003E0
FFFFE0
FFFFE0
FFFFE0
FFFFE0
F003E0
F001E0
F001E0
F003E0
FFFFE0
FFFFE0
FFFFE0
FFFFC0
ENDCHAR
STARTCHAR 0039
ENCODING 57
SWIDTH 647 0
DWIDTH 22 0
BBX 19 19 2 0
BITMAP
FFFFC0
FFFFE0
FFFFE0
FFFFE0
F003E0
F001E0
F003E0
FFFFE0
FFFFE0
FFFFE0
FFFFE0
0003E0
0001E0
0001E0
0003E0
FFFFE0
FFFFE0
FFFFE0
FFFFC0
ENDCHAR
STARTCHAR 003A
ENCODING 58
SWIDTH 205 0
DWIDTH 7 0
BBX 4 11 2 4
BITMAP
E0
F0
F0
E0
00
00
00
E0
F0
F0
E0
ENDCHAR
STARTCHAR 003B
ENCODING 59
SWIDTH 205 0
DWIDTH 7 0
BBX 4 15 2 0
BITMAP
E0
F0
F0
E0
00
00
00
E0
F0
F0
F0
F0
F0
F0
E0
ENDCHAR
STARTCHAR 003C
ENCODING 60
SWIDTH 382 0
DWIDTH 13 0
BBX 9 15 2 2
BITMAP
0300
0780
0F80
1F80
3F00
7E00
FC00
F800
FC00
7E00
3F00
1F80
0F80
0780
0300
ENDCHAR
STARTCHAR 003D
ENCODING 61
SWIDTH 411 0
DWIDTH 14 0
BBX 11 11 2 4
BITMAP
FFE0
FFE0
FFE0
FFE0
0000
0000
0000
FFE0
FFE0
FFE0
FFE0
ENDCHAR
STARTCHAR 003E
ENCODING 62
SWIDTH 382 0
DWIDTH 13 0
BBX 9 15 2 2
BITMAP
6000
F000
F800
FC00
7E00
3F00
1F80
0F80
1F80
3F00
7E00
FC00
F800
F000
6000
ENDCHAR
STARTCHAR 003F
ENCODING 63
SWIDTH 647 0
DWIDTH 22 0
BBX 20 19 2 0
BITMAP
FFFFE0
FFFFF0
FFFFF0
FFFFF0
F001F0
F000F0
F000F0
E001F0
00FFF0
00FFF0
00FFF0
00FFE0
000000
000000
000000
00E000
00F000
00F000
00E000
ENDCHAR
STARTCHAR 0040
ENCODING 64
SWIDTH 647 0
DWIDTH 22 0
BBX 19 19 2 0
BITMAP
FFFFC0
FFFFE0
FFFFE0
FFFFE0
F1F3E0
F0F1E0
F0F1E0
F0F3E0
F0FFE0
F0FFE0
F0FFE0
F0FFC0
F00000
F00000
F00000
FFFFC0
FFFFE0
FFFFE0
FFFFC0
ENDCHAR
STARTCHAR 0041
ENCODING 65
SWIDTH 647 0
DWIDTH 22 0
BBX 19 19 2 0
BITMAP
FFFFC0
FFFFE0
FFFFE0
FFFFE0
0003E0
0001E0
0001E0
0003E0
FFFFE0
FFFFE0
FFFFE0
FFFFE0
F003E0
F001E0
F003E0
FFFFE0
FFFFE0
FFFFE0
FFFFC0
ENDCHAR
STARTCHAR 0042
ENCODING 66
SWIDTH 647 0
DWIDTH 22 0
BBX 19 26 2 0
BITMAP
E00000
F00000
F00000
F00000
F00000
F00000
F00000
FFFFC0
FFFFE0
FFFFE0
FFFFE0
F003E0
F001E0
F001E0
F001E0
F001E0
F001E0
F001E0
F001E0
F001E0
F001E0
F003E0
FFFFE0
FFFFE0
FFFFE0
FFFFC0
ENDCHAR
STARTCHAR 0043
ENCODING 67
SWIDTH 647 0
DWIDTH 22 0
BBX 18 19 2 0
BITMAP
FFFFC0
FFFFC0
FFFFC0
FFFFC0
F00000
F00000
F00000
F00000
F00000
F00000
F00000
F00000
F00000
F00000
F00000
FFFFC0
FFFFC0
FFFFC0
FFFFC0
ENDCHAR
STARTCHAR 0044
ENCODING 68
SWIDTH 647 0
DWIDTH 22 0
BBX 19 26 2 0
BITMAP
0001C0
0001E0
0001E0
0001E0
0001E0
0001E0
0003E0
FFFFE0
FFFFE0
FFFFE0
FFFFE0
F003E0
F001E0
F001E0
F001E0
F001E0
F001E0
F001E0
F001E0
F001E0
F001E0
F003E0
FFFFE0
FFFFE0
FFFFE0
FFFFC0
ENDCHAR
STARTCHAR 0045
ENCODING 69
SWIDTH 647 0
DWIDTH 22 0
BBX 19 19 2 0
BITMAP
FFFFC0
FFFFE0
FFFFE0
FFFFE0
F003E0
F001E0
F003E0
FFFFE0
FFFFE0
FFFFE0
FFFFC0
F00000
F00000
F00000
F00000
FFFFC0
FFFFE0
FFFFE0
FFFFC0
ENDCHAR
STARTCHAR 0046
ENCODING 70
SWIDTH 647 0
DWIDTH 22 0
BBX 18 19 2 0
BITMAP
FFFFC0
FFFFC0
FFFFC0
FFFFC0
F00000
F00000
F00000
F00000
FFFFC0
FFFFC0
FFFFC0
FFFFC0
F00000
F00000
F00000
F00000
F00000
F00000
E00000
ENDCHAR
STARTCHAR 0047
ENCODING 71
SWIDTH 647 0
DWIDTH 22 0
BBX 19 19 2 0
BITMAP
FFFFC0
FFFFE0
FFFFE0
FFFFC0
F00000
F00000
F00000
F00000
F1FFC0
F1FFE0
F1FFE0
F1FFE0
F003E0
F001E0
F003E0
FFFFE0
FFFFE0
FFFFE0
FFFFC0
ENDCHAR
STARTCHAR 0048
ENCODING 72
SWIDTH 647 0
DWIDTH 22 0
BBX 19 26 2 0
BITMAP
E00000
F00000
F00000
F00000
F00000
F00000
F00000
FFFFC0
FFFFE0
FFFFE0
FFFFE0
F003E0
F001E0
F001E0
F001E0
F001E0
F001E0
F001E0
F001E0
F001E0
F001E0
F001E0
F001E0
F001E0
F001E0
E001C0
ENDCHAR
STARTCHAR 0049
ENCODING 73
SWIDTH 205 0
DWIDTH 7 0
BBX 4 19 2 0
BITMAP
E0
F0
F0
F0
F0
F0
F0
F0
F0
F0
F0
F0
F0
F0
F0
F0
F0
F0
E0
ENDCHAR
STARTCHAR 004A
ENCODING 74
SWIDTH 647 0
DWIDTH 22 0
BBX 19 19 2 0
BITMAP
0001C0
0001E0
0001E0
0001E0
0001E0
0001E0
0001E0
0001E0
0001E0
0001E0
0001E0
E001E0
F001E0
F001E0
F003E0
FFFFE0
FFFFE0
FFFFE0
FFFFC0
ENDCHAR
STARTCHAR 004B
ENCODING 75
SWIDTH 617 0
DWIDTH 21 0
BBX 18 19 2 0
BITMAP
E00180
F00380
F007C0
F00FC0
F01F80
F03F00
F07E00
F0FC00
F1F800
F3F000
F7F800
FFFC00
FFFE00
FF3F00
FE1F80
FC0FC0
F807C0
F003C0
E00180
ENDCHAR
STARTCHAR 004C
ENCODING 76
SWIDTH 647 0
DWIDTH 22 0
BBX 18 19 2 0
BITMAP
E00000
F00000
F00000
F00000
F00000
F00000
F00000
F00000
F00000
F00000
F00000
F00000
F00000
F00000
F00000
FFFFC0
FFFFC0
FFFFC0
FFFFC0
ENDCHAR
STARTCHAR 004D
ENCODING 77
SWIDTH 647 0
DWIDTH 22 0
BBX 19 19 2 0
BITMAP
FFFFC0
FFFFE0
FFFFE0
FFFFE0
F3E3E0
F1E1E0
F1E1E0
F1E1E0
F1E1E0
F1E1E0
F1E1E0
F1E1E0
F1E1E0
F1E1E0
F1E1E0
F1E1E0
F1E1E0
F1E1E0
E1C1C0
ENDCHAR
STARTCHAR 004E
ENCODING 78
SWIDTH 647 0
DWIDTH 22 0
BBX 19 19 2 0
BITMAP
FFFFC0
FFFFE0
FFFFE0
FFFFE0
F003E0
F001E0
F001E0
F001E0
F001E0
F001E0
F001E0
F001E0
F001E0
F001E0
F001E0
F001E0
F001E0
F001E0
E001C0
ENDCHAR
STARTCHAR 004F
ENCODING 79
SWIDTH 647 0
DWIDTH 22 0
BBX 19 19 2 0
BITMAP
FFFFC0
FFFFE0
FFFFE0
FFFFE0
F003E0
F001E0
F001E0
F001E0
F001E0
F001E0
F001E0
F001E0
F001E0
F001E0
F003E0
FFFFE0
FFFFE0
FFFFE0
FFFFC0
ENDCHAR
STARTCHAR 0050
ENCODING 80
SWIDTH 647 0
DWIDTH 22 0
BBX 19 27 2 -8
BITMAP
FFFFC0
FFFFE0
FFFFE0
FFFFE0
F003E0
F001E0
F001E0
F001E0
F001E0
F001E0
F001E0
F001E0
F001E0
F001E0
F003E0
FFFFE0
FFFFE0
FFFFE0
FFFFC0
F00000
F00000
F00000
F00000
F00000
F00000
F00000
E00000
ENDCHAR
STARTCHAR 0051
ENCODING 81
SWIDTH 647 0
DWIDTH 22 0
BBX 20 27 2 -8
BITMAP
FFFFE0
FFFFF0
FFFFF0
FFFFF0
F001F0
F000F0
F000F0
F000F0
F000F0
F000F0
F000F0
F000F0
F000F0
F000F0
F001F0
FFFFF0
FFFFF0
FFFFF0
FFFFE0
01F000
00F000
00F000
00F000
00FE00
00FF00
00FF00
00FE00
ENDCHAR
STARTCHAR 0052
ENCODING 82
SWIDTH 647 0
DWIDTH 22 0
BBX 18 19 2 0
BITMAP
FFFFC0
FFFFC0
FFFFC0
FFFFC0
F00000
F00000
F00000
F00000
F00000
F00000
F00000
F00000
F00000
F00000
F00000
F00000
F00000
F00000
E00000
ENDCHAR
STARTCHAR 0053
ENCODING 83
SWIDTH 647 0
DWIDTH 22 0
BBX 19 19 2 0
BITMAP
FFFFC0
FFFFE0
FFFFE0
FFFFC0
F00000
F00000
F00000
F00000
FFFFC0
FFFFE0
FFFFE0
FFFFE0
0003E0
0001E0
0003E0
FFFFE0
FFFFE0
FFFFE0
FFFFC0
ENDCHAR
STARTCHAR 0054
ENCODING 84
SWIDTH 647 0
DWIDTH 22 0
BBX 18 19 2 0
BITMAP
FFFFC0
FFFFC0
FFFFC0
FFFFC0
03E000
01E000
01E000
01E000
01E000
01E000
01E000
01E000
01E000
01E000
01E000
01E000
01E000
01E000
01C000
ENDCHAR
STARTCHAR 0055
ENCODING 85
SWIDTH 647 0
DWIDTH 22 0
BBX 19 19 2 0
BITMAP
E001C0
F001E0
F001E0
F001E0
F001E0
F001E0
F001E0
F001E0
F001E0
F001E0
F001E0
F001E0
F001E0
F001E0
F003E0
FFFFE0
FFFFE0
FFFFE0
FFFFC0
ENDCHAR
STARTCHAR 0056
ENCODING 86
SWIDTH 617 0
DWIDTH 21 0
BBX 18 19 2 0
BITMAP
600300
E00380
F007C0
F00780
F80F80
7C1F00
7C1F00
3E3E00
1E3C00
1F7C00
0F7800
0FF800
07F000
07F000
03E000
03E000
01C000
018000
008000
ENDCHAR
STARTCHAR 0057
ENCODING 87
SWIDTH 647 0
DWIDTH 22 0
BBX 19 19 2 0
BITMAP
E1C1C0
F1E1E0
F1E1E0
F1E1E0
F1E1E0
F1E1E0
F1E1E0
F1E1E0
F1E1E0
F1E1E0
F1E1E0
F1E1E0
F1E1E0
F1E1E0
F3E3E0
FFFFE0
FFFFE0
FFFFE0
FFFFC0
ENDCHAR
STARTCHAR 0058
ENCODING 88
SWIDTH 617 0
DWIDTH 21 0
BBX 17 19 2 0
BITMAP
400100
E00380
F00780
F80F80
7C1F00
3E3E00
1F7C00
0FF800
07F000
07F000
07F000
0FF800
1FFC00
3E3E00
7C1F00
F80F80
F00F80
E00780
600300
ENDCHAR
STARTCHAR 0059
ENCODING 89
SWIDTH 647 0
DWIDTH 22 0
BBX 20 27 2 -8
BITMAP
E000E0
F000F0
F000F0
F000F0
F000F0
F000F0
F000F0
F000F0
F000F0
F000F0
F000F0
F000F0
F000F0
F000F0
F001F0
FFFFF0
FFFFF0
FFFFF0
FFFFE0
01F000
00F000
00F000
00F000
00F000
00F000
00F000
00E000
ENDCHAR
STARTCHAR 005A
ENCODING 90
SWIDTH 647 0
DWIDTH 22 0
BBX 18 19 2 0
BITMAP
FFFFC0
FFFFC0
FFFFC0
FFFFC0
001F80
003F00
007E00
00FC00
01F800
03F000
07E000
0FC000
1F8000
3F0000
7E0000
FFFFC0
FFFFC0
FFFFC0
FFFFC0
ENDCHAR
STARTCHAR 005B
ENCODING 91
SWIDTH 323 0
DWIDTH 11 0
BBX 8 34 2 -8
BITMAP
FE
FF
FF
FE
F0
F0
F0
F0
F0
F0
F0
F0
F0
F0
F0
F0
F0
F0
F0
F0
F0
F0
F0
F0
F0
F0
F0
F0
F0
F0
FE
FF
FF
FE
ENDCHAR
STARTCHAR 005C
ENCODING 92
SWIDTH 617 0
DWIDTH 21 0
BBX 17 19 2 0
BITMAP
600000
F00000
F80000
FC0000
FC0000
7E0000
3F0000
1F8000
0FC000
07E000
03F000
01F800
00FC00
007E00
003F00
001F80
000F80
000780
000300
ENDCHAR
STARTCHAR 005D
ENCODING 93
SWIDTH 323 0
DWIDTH 11 0
BBX 8 34 2 -8
BITMAP
FE
FF
FF
FF
1F
0F
0F
0F
0F
0F
0F
0F
0F
0F
0F
0F
0F
0F
0F
0F
0F
0F
0F
0F
0F
0F
0F
0F
0F
1F
FF
FF
FF
FE
ENDCHAR
STARTCHAR 005E
ENCODING 94
SWIDTH 382 0
DWIDTH 13 0
BBX 9 7 2 12
BITMAP
1800
3C00
7E00
FF00
FF80
F700
6600
ENDCHAR
STARTCHAR 005F
ENCODING 95
SWIDTH 647 0
DWIDTH 22 0
BBX 18 4 2 -8
BITMAP
FFFFC0
FFFFC0
FFFFC0
FFFFC0
ENDCHAR
STARTCHAR 0060
ENCODING 96
SWIDTH 264 0
DWIDTH 9 0
BBX 6 7 2 12
BITMAP
E0
F0
F8
FC
7C
38
10
ENDCHAR
STARTCHAR 0061
ENCODING 97
SWIDTH 647 0
DWIDTH 22 0
BBX 19 19 2 0
BITMAP
FFFFC0
FFFFE0
FFFFE0
FFFFE0
0003E0
0001E0
0001E0
0003E0
FFFFE0
FFFFE0
FFFFE0
FFFFE0
F003E0
F001E0
F003E0
FFFFE0
FFFFE0
FFFFE0
FFFFC0
ENDCHAR
STARTCHAR 0062
ENCODING 98
SWIDTH 647 0
DWIDTH 22 0
BBX 19 26 2 0
BITMAP
E00000
F00000
F00000
F00000
F00000
F00000
F00000
FFFFC0
FFFFE0
FFFFE0
FFFFE0
F003E0
F001E0
F001E0
F001E0
F001E0
F001E0
F001E0
F001E0
F001E0
F001E0
F003E0
FFFFE0
FFFFE0
FFFFE0
FFFFC0
ENDCHAR
STARTCHAR 0063
ENCODING 99
SWIDTH 647 0
DWIDTH 22 0
BBX 18 19 2 0
BITMAP
FFFFC0
FFFFC0
FFFFC0
FFFFC0
F00000
F00000
F00000
F00000
F00000
F00000
F00000
F00000
F00000
F00000
F00000
FFFFC0
FFFFC0
FFFFC0
FFFFC0
ENDCHAR
STARTCHAR 0064
ENCODING 100
SWIDTH 647 0
DWIDTH 22 0
BBX 19 26 2 0
BITMAP
0001C0
0001E0
0001E0
0001E0
0001E0
0001E0
0003E0
FFFFE0
FFFFE0
FFFFE0
FFFFE0
F003E0
F001E0
F001E0
F001E0
F001E0
F001E0
F001E0
F001E0
F001E0
F001E0
F003E0
FFFFE0
FFFFE0
FFFFE0
FFFFC0
ENDCHAR
STARTCHAR 0065
ENCODING 101
SWIDTH 647 0
DWIDTH 22 0
BBX 19 19 2 0
BITMAP
FFFFC0
FFFFE0
FFFFE0
FFFFE0
F003E0
F001E0
F003E0
FFFFE0
FFFFE0
FFFFE0
FFFFC0
F00000
F00000
F00000
F00000
FFFFC0
FFFFE0
FFFFE0
FFFFC0
ENDCHAR
STARTCHAR 0066
ENCODING 102
SWIDTH 647 0
DWIDTH 22 0
BBX 18 19 2 0
BITMAP
FFFFC0
FFFFC0
FFFFC0
FFFFC0
F00000
F00000
F00000
F00000
FFFFC0
FFFFC0
FFFFC0
FFFFC0
F00000
F00000
F00000
F00000
F00000
F00000
E00000
ENDCHAR
STARTCHAR 0067
ENCODING 103
SWIDTH 647 0
DWIDTH 22 0
BBX 19 19 2 0
BITMAP
FFFFC0
FFFFE0
FFFFE0
FFFFC0
F00000
F00000
F00000
F00000
F1FFC0
F1FFE0
F1FFE0
F1FFE0
F003E0
F001E0
F003E0
FFFFE0
FFFFE0
FFFFE0
FFFFC0
ENDCHAR
STARTCHAR 0068
ENCODING 104
SWIDTH 647 0
DWIDTH 22 0
BBX 19 26 2 0
BITMAP
E00000
F00000
F00000
F00000
F00000
F00000
F00000
FFFFC0
FFFFE0
FFFFE0
FFFFE0
F003E0
F001E0
F001E0
F001E0
F001E0
F001E0
F001E0
F001E0
F001E0
F001E0
F001E0
F001E0
F001E0
F001E0
E001C0
ENDCHAR
STARTCHAR 0069
ENCODING 105
SWIDTH 205 0
DWIDTH 7 0
BBX 4 19 2 0
BITMAP
E0
F0
F0
F0
F0
F0
F0
F0
F0
F0
F0
F0
F0
F0
F0
F0
F0
F0
E0
ENDCHAR
STARTCHAR 006A
ENCODING 106
SWIDTH 647 0
DWIDTH 22 0
BBX 19 19 2 0
BITMAP
0001C0
0001E0
0001E0
0001E0
0001E0
0001E0
0001E0
0001E0
0001E0
0001E0
0001E0
E001E0
F001E0
F001E0
F003E0
FFFFE0
FFFFE0
FFFFE0
FFFFC0
ENDCHAR
STARTCHAR 006B
ENCODING 107
SWIDTH 617 0
DWIDTH 21 0
BBX 18 19 2 0
BITMAP
E00180
F00380
F007C0
F00FC0
F01F80
F03F00
F07E00
F0FC00
F1F800
F3F000
F7F800
FFFC00
FFFE00
FF3F00
FE1F80
FC0FC0
F807C0
F003C0
E00180
ENDCHAR
STARTCHAR 006C
ENCODING 108
SWIDTH 647 0
DWIDTH 22 0
BBX 18 19 2 0
BITMAP
E00000
F00000
F00000
F00000
F00000
F00000
F00000
F00000
F00000
F00000
F00000
F00000
F00000
F00000
F00000
FFFFC0
FFFFC0
FFFFC0
FFFFC0
ENDCHAR
STARTCHAR 006D
ENCODING 109
SWIDTH 647 0
DWIDTH 22 0
BBX 19 19 2 0
BITMAP
FFFFC0
FFFFE0
FFFFE0
FFFFE0
F3E3E0
F1E1E0
F1E1E0
F1E1E0
F1E1E0
F1E1E0
F1E1E0
F1E1E0
F1E1E0
F1E1E0
F1E1E0
F1E1E0
F1E1E0
F1E1E0
E1C1C0
ENDCHAR
STARTCHAR 006E
ENCODING 110
SWIDTH 647 0
DWIDTH 22 0
BBX 19 19 2 0
BITMAP
FFFFC0
FFFFE0
FFFFE0
FFFFE0
F003E0
F001E0
F001E0
F001E0
F001E0
F001E0
F001E0
F001E0
F001E0
F001E0
F001E0
F001E0
F001E0
F001E0
E001C0
ENDCHAR
STARTCHAR 006F
ENCODING 111
SWIDTH 647 0
DWIDTH 22 0
BBX 19 19 2 0
BITMAP
FFFFC0
FFFFE0
FFFFE0
FFFFE0
F003E0
F001E0
F001E0
F001E0
F001E0
F001E0
F001E0
F001E0
F001E0
F001E0
F003E0
FFFFE0
FFFFE0
FFFFE0
FFFFC0
ENDCHAR
STARTCHAR 0070
ENCODING 112
SWIDTH 647 0
DWIDTH 22 0
BBX 19 27 2 -8
BITMAP
FFFFC0
FFFFE0
FFFFE0
FFFFE0
F003E0
F001E0
F001E0
F001E0
F001E0
F001E0
F001E0
F001E0
F001E0
F001E0
F003E0
FFFFE0
FFFFE0
FFFFE0
FFFFC0
F00000
F00000
F00000
F00000
F00000
F00000
F00000
E00000
ENDCHAR
STARTCHAR 0071
ENCODING 113
SWIDTH 647 0
DWIDTH 22 0
BBX 20 27 2 -8
BITMAP
FFFFE0
FFFFF0
FFFFF0
FFFFF0
F001F0
F000F0
F000F0
F000F0
F000F0
F000F0
F000F0
F000F0
F000F0
F000F0
F001F0
FFFFF0
FFFFF0
FFFFF0
FFFFE0
01F000
00F000
00F000
00F000
00FE00
00FF00
00FF00
00FE00
ENDCHAR
STARTCHAR 0072
ENCODING 114
SWIDTH 647 0
DWIDTH 22 0
BBX 18 19 2 0
BITMAP
FFFFC0
FFFFC0
FFFFC0
FFFFC0
F00000
F00000
F00000
F00000
F00000
F00000
F00000
F00000
F00000
F00000
F00000
F00000
F00000
F00000
E00000
ENDCHAR
STARTCHAR 0073
ENCODING 115
SWIDTH 647 0
DWIDTH 22 0
BBX 19 19 2 0
BITMAP
FFFFC0
FFFFE0
FFFFE0
FFFFC0
F00000
F00000
F00000
F00000
FFFFC0
FFFFE0
FFFFE0
FFFFE0
0003E0
0001E0
0003E0
FFFFE0
FFFFE0
FFFFE0
FFFFC0
ENDCHAR
STARTCHAR 0074
ENCODING 116
SWIDTH 647 0
DWIDTH 22 0
BBX 18 19 2 0
BITMAP
FFFFC0
FFFFC0
FFFFC0
FFFFC0
03E000
01E000
01E000
01E000
01E000
01E000
01E000
01E000
01E000
01E000
01E000
01E000
01E000
01E000
01C000
ENDCHAR
STARTCHAR 0075
ENCODING 117
SWIDTH 647 0
DWIDTH 22 0
BBX 19 19 2 0
BITMAP
E001C0
F001E0
F001E0
F001E0
F001E0
F001E0
F001E0
F001E0
F001E0
F001E0
F001E0
F001E0
F001E0
F001E0
F003E0
FFFFE0
FFFFE0
FFFFE0
FFFFC0
ENDCHAR
STARTCHAR 0076
ENCODING 118
SWIDTH 617 0
DWIDTH 21 0
BBX 18 19 2 0
BITMAP
600300
E00380
F007C0
F00780
F80F80
7C1F00
7C1F00
3E3E00
1E3C00
1F7C00
0F7800
0FF800
07F000
07F000
03E000
03E000
01C000
018000
008000
ENDCHAR
STARTCHAR 0077
ENCODING 119
SWIDTH 647 0
DWIDTH 22 0
BBX 19 19 2 0
BITMAP
E1C1C0
F1E1E0
F1E1E0
F1E1E0
F1E1E0
F1E1E0
F1E1E0
F1E1E0
F1E1E0
F1E1E0
F1E1E0
F1E1E0
F1E1E0
F1E1E0
F3E3E0
FFFFE0
FFFFE0
FFFFE0
FFFFC0
ENDCHAR
STARTCHAR 0078
ENCODING 120
SWIDTH 617 0
DWIDTH 21 0
BBX 17 19 2 0
BITMAP
400100
E00380
F00780
F80F80
7C1F00
3E3E00
1F7C00
0FF800
07F000
07F000
07F000
0FF800
1FFC00
3E3E00
7C1F00
F80F80
F00F80
E00780
600300
ENDCHAR
STARTCHAR 0079
ENCODING 121
SWIDTH 647 0
DWIDTH 22 0
BBX 20 27 2 -8
BITMAP
E000E0
F000F0
F000F0
F000F0
F000F0
F000F0
F000F0
F000F0
F000F0
F000F0
F000F0
F000F0
F000F0
F000F0
F001F0
FFFFF0
FFFFF0
FFFFF0
FFFFE0
01F000
00F000
00F000
00F000
00F000
00F000
00F000
00E000
ENDCHAR
STARTCHAR 007A
ENCODING 122
SWIDTH 647 0
DWIDTH 22 0
BBX 18 19 2 0
BITMAP
FFFFC0
FFFFC0
FFFFC0
FFFFC0
001F80
003F00
007E00
00FC00
01F800
03F000
07E000
0FC000
1F8000
3F0000
7E0000
FFFFC0
FFFFC0
FFFFC0
FFFFC0
ENDCHAR
STARTCHAR 007B
ENCODING 123
SWIDTH 411 0
DWIDTH 14 0
BBX 12 34 2 -8
BITMAP
0FE0
0FF0
0FF0
0FE0
0F00
0F00
0F00
0F00
0F00
0F00
1F00
FF00
FF00
FF00
FE00
F000
F000
F000
FC00
FE00
FF00
FF00
1F00
0F00
0F00
0F00
0F00
0F00
0F00
0F00
0FE0
0FF0
0FF0
0FE0
ENDCHAR
STARTCHAR 007C
ENCODING 124
SWIDTH 205 0
DWIDTH 7 0
BBX 4 34 2 -8
BITMAP
E0
F0
F0
F0
F0
F0
F0
F0
F0
F0
F0
F0
F0
F0
F0
F0
F0
F0
F0
F0
F0
F0
F0
F0
F0
F0
F0
F0
F0
F0
F0
F0
F0
E0
ENDCHAR
STARTCHAR 007D
ENCODING 125
SWIDTH 411 0
DWIDTH 14 0
BBX 12 34 1 -8
BITMAP
FE00
FF00
FF00
FF00
1F00
0F00
0F00
0F00
0F00
0F00
0F00
0FE0
0FF0
0FF0
0FF0
01F0
00F0
01F0
07F0
0FF0
0FF0
0FE0
0F00
0F00
0F00
0F00
0F00
0F00
0F00
1F00
FF00
FF00
FF00
FE00
ENDCHAR
STARTCHAR 007E
ENCODING 126
SWIDTH 558 0
DWIDTH 19 0
BBX 16 9 2 5
BITMAP
0606
0E0F
1F1F
3FBE
7FFC
F9F8
F9F0
F0E0
6040
ENDCHAR
STARTCHAR 00A0
ENCODING 160
SWIDTH 235 0
DWIDTH 8 0
BBX 0 0 0 0
BITMAP
ENDCHAR
STARTCHAR 00A1
ENCODING 161
SWIDTH 205 0
DWIDTH 7 0
BBX 4 19 2 0
BITMAP
E0
F0
F0
E0
00
00
00
00
E0
F0
F0
F0
F0
F0
F0
F0
F0
F0
E0
ENDCHAR
STARTCHAR 00A2
ENCODING 162
SWIDTH 529 0
DWIDTH 18 0
BBX 15 19 2 0
BITMAP
01C0
01E0
01E0
03E0
FFFC
FFFE
FFFE
FFFC
F000
F000
F000
FFFC
FFFE
FFFE
FFFC
03E0
01E0
01E0
01C0
ENDCHAR
STARTCHAR 00A3
ENCODING 163
SWIDTH 647 0
DWIDTH 22 0
BBX 18 19 2 0
BITMAP
0FFC00
0FFE00
0FFE00
0FFC00
0F0000
0F0000
1F0000
FFE000
FFF000
FFF000
FFE000
1F0000
0F0000
0F0000
1F0000
FFFFC0
FFFFC0
FFFFC0
FFFFC0
ENDCHAR
STARTCHAR 00A4
ENCODING 164
SWIDTH 676 0
DWIDTH 23 0
BBX 21 19 1 0
BITMAP
3FFFF0
3FFFF8
3FFFF8
3FFFF0
3C0000
FFF800
FFFC00
FFFC00
FFF800
3C0000
FFF800
FFFC00
FFFC00
FFF800
3C0000
3FFFF0
3FFFF8
3FFFF8
3FFFF0
ENDCHAR
STARTCHAR 00A5
ENCODING 165
SWIDTH 647 0
DWIDTH 22 0
BBX 20 19 2 0
BITMAP
E000E0
F000F0
F000F0
F001F0
FFFFF0
FFFFF0
FFFFF0
FFFFE0
01F000
00F000
01F000
0FFE00
0FFF00
0FFF00
0FFE00
01F000
00F000
00F000
00E000
ENDCHAR
STARTCHAR 00A8
ENCODING 168
SWIDTH 411 0
DWIDTH 14 0
BBX 11 3 2 23
BITMAP
E1C0
F1E0
E1C0
ENDCHAR
STARTCHAR 00A9
ENCODING 169
SWIDTH 411 0
DWIDTH 14 0
BBX 11 11 2 8
BITMAP
FFC0
8060
8020
9FA0
9020
9020
9020
9020
9FA0
8060
FFC0
ENDCHAR
STARTCHAR 00AB
ENCODING 171
SWIDTH 500 0
DWIDTH 17 0
BBX 13 9 2 5
BITMAP
1830
3C78
7CF8
FDF0
F9F0
FDF0
7CF8
3C78
1830
ENDCHAR
STARTCHAR 00AC
ENCODING 172
SWIDTH 411 0
DWIDTH 14 0
BBX 11 7 2 6
BITMAP
FFC0
FFE0
FFE0
FFE0
03E0
01E0
01C0
ENDCHAR
STARTCHAR 00AE
ENCODING 174
SWIDTH 411 0
DWIDTH 14 0
BBX 11 11 2 8
BITMAP
FFC0
8060
8020
9FA0
9020
9020
9020
9020
8020
8060
FFC0
ENDCHAR
STARTCHAR 00B0
ENCODING 176
SWIDTH 411 0
DWIDTH 14 0
BBX 11 11 2 8
BITMAP
FFC0
FFE0
FFE0
FFE0
F3E0
F1E0
F3E0
FFE0
FFE0
FFE0
FFC0
ENDCHAR
STARTCHAR 00B1
ENCODING 177
SWIDTH 411 0
DWIDTH 14 0
BBX 12 17 2 1
BITMAP
0E00
0F00
0F00
1F00
FFE0
FFF0
FFF0
FFE0
1F00
0F00
0F00
0E00
0000
FFE0
FFF0
FFF0
FFE0
ENDCHAR
STARTCHAR 00B4
ENCODING 180
SWIDTH 264 0
DWIDTH 9 0
BBX 6 6 2 22
BITMAP
E0
F0
F8
FC
7C
38
ENDCHAR
STARTCHAR 00B5
ENCODING 181
SWIDTH 647 0
DWIDTH 22 0
BBX 18 23 2 -4
BITMAP
E01C00
F01E00
F01E00
F01E00
F01E00
F01E00
F01E00
F01E00
F01E00
F01E00
F01E00
F01E00
F01E00
F01E00
F03E00
FFFFC0
FFFFC0
FFFFC0
FFFFC0
F00000
F00000
F00000
E00000
ENDCHAR
STARTCHAR 00B7
ENCODING 183
SWIDTH 205 0
DWIDTH 7 0
BBX 4 3 2 8
BITMAP
E0
F0
E0
ENDCHAR
STARTCHAR 00BB
ENCODING 187
SWIDTH 500 0
DWIDTH 17 0
BBX 14 9 2 5
BITMAP
60C0
F1E0
F9F0
7DF8
7CFC
7DF8
F9F0
F1E0
60C0
ENDCHAR
STARTCHAR 00BF
ENCODING 191
SWIDTH 647 0
DWIDTH 22 0
BBX 20 19 2 0
BITMAP
00E000
00F000
00F000
00E000
000000
000000
000000
FFE000
FFF000
FFF000
FFE000
F000E0
F000F0
F000F0
F001F0
FFFFF0
FFFFF0
FFFFF0
FFFFE0
ENDCHAR
STARTCHAR 00C0
ENCODING 192
SWIDTH 647 0
DWIDTH 22 0
BBX 19 29 2 0
BITMAP
018000
03C000
03E000
03F000
01F000
00F000
000000
000000
000000
000000
FFFFC0
FFFFE0
FFFFE0
FFFFE0
0003E0
0001E0
0003E0
FFFFE0
FFFFE0
FFFFE0
FFFFE0
F003E0
F001E0
F001E0
F003E0
FFFFE0
FFFFE0
FFFFE0
FFFFC0
ENDCHAR
STARTCHAR 00C1
ENCODING 193
SWIDTH 647 0
DWIDTH 22 0
BBX 19 29 2 0
BITMAP
006000
00F000
01F000
03F000
03E000
03C000
000000
000000
000000
000000
FFFFC0
FFFFE0
FFFFE0
FFFFE0
0003E0
0001E0
0003E0
FFFFE0
FFFFE0
FFFFE0
FFFFE0
F003E0
F001E0
F001E0
F003E0
FFFFE0
FFFFE0
FFFFE0
FFFFC0
ENDCHAR
STARTCHAR 00C2
ENCODING 194
SWIDTH 647 0
DWIDTH 22 0
BBX 19 30 2 0
BITMAP
00C000
01E000
03F000
07F800
07F800
07F800
073800
000000
000000
000000
000000
FFFFC0
FFFFE0
FFFFE0
FFFFE0
0003E0
0001E0
0003E0
FFFFE0
FFFFE0
FFFFE0
FFFFE0
F003E0
F001E0
F001E0
F003E0
FFFFE0
FFFFE0
FFFFE0
FFFFC0
ENDCHAR
STARTCHAR 00C3
ENCODING 195
SWIDTH 647 0
DWIDTH 22 0
BBX 19 29 2 0
BITMAP
038C00
07FE00
0FFE00
1FFC00
1FF800
0E7000
000000
000000
000000
000000
FFFFC0
FFFFE0
FFFFE0
FFFFE0
0003E0
0001E0
0003E0
FFFFE0
FFFFE0
FFFFE0
FFFFE0
F003E0
F001E0
F001E0
F003E0
FFFFE0
FFFFE0
FFFFE0
FFFFC0
ENDCHAR
STARTCHAR 00C4
ENCODING 196
SWIDTH 647 0
DWIDTH 22 0
BBX 19 26 2 0
BITMAP
0E1C00
0F1E00
0F1E00
0E1C00
000000
000000
000000
FFFFC0
FFFFE0
FFFFE0
FFFFE0
0003E0
0001E0
0003E0
FFFFE0
FFFFE0
FFFFE0
FFFFE0
F003E0
F001E0
F001E0
F003E0
FFFFE0
FFFFE0
FFFFE0
FFFFC0
ENDCHAR
STARTCHAR 00C5
ENCODING 197
SWIDTH 647 0
DWIDTH 22 0
BBX 19 34 2 0
BITMAP
0FFC00
0FFE00
0FFE00
0FFE00
0F3E00
0F1E00
0F1E00
0F3E00
0FFE00
0FFE00
0FFE00
0FFC00
000000
000000
000000
FFFFC0
FFFFE0
FFFFE0
FFFFE0
0003E0
0001E0
0003E0
FFFFE0
FFFFE0
FFFFE0
FFFFE0
F003E0
F001E0
F001E0
F003E0
FFFFE0
FFFFE0
FFFFE0
FFFFC0
ENDCHAR
STARTCHAR 00C6
ENCODING 198
SWIDTH 647 0
DWIDTH 22 0
BBX 18 19 2 0
BITMAP
FFFFC0
FFFFC0
FFFFC0
FFFFC0
F3E000
F1E000
F1E000
F3E000
FFFFC0
FFFFC0
FFFFC0
FFFFC0
F3E000
F1E000
F1E000
F1FFC0
F1FFC0
F1FFC0
E1FFC0
ENDCHAR
STARTCHAR 00C7
ENCODING 199
SWIDTH 647 0
DWIDTH 22 0
BBX 18 27 2 -8
BITMAP
FFFFC0
FFFFC0
FFFFC0
FFFFC0
F00000
F00000
F00000
F00000
F00000
F00000
F00000
F00000
F00000
F00000
F00000
FFFFC0
FFFFC0
FFFFC0
FFFFC0
003E00
001E00
001E00
003E00
01FE00
01FE00
01FE00
01FC00
ENDCHAR
STARTCHAR 00C8
ENCODING 200
SWIDTH 647 0
DWIDTH 22 0
BBX 18 29 2 0
BITMAP
018000
03C000
03E000
03F000
01F000
00F000
000000
000000
000000
000000
FFFFC0
FFFFC0
FFFFC0
FFFFC0
F00000
F00000
F00000
FFFFC0
FFFFC0
FFFFC0
FFFFC0
F00000
F00000
F00000
F00000
FFFFC0
FFFFC0
FFFFC0
FFFFC0
ENDCHAR
STARTCHAR 00C9
ENCODING 201
SWIDTH 647 0
DWIDTH 22 0
BBX 19 29 2 0
BITMAP
006000
00F000
01F000
03F000
03E000
03C000
000000
000000
000000
000000
FFFFC0
FFFFE0
FFFFE0
FFFFE0
F003E0
F001E0
F003E0
FFFFE0
FFFFE0
FFFFE0
FFFFC0
F00000
F00000
F00000
F00000
FFFFC0
FFFFE0
FFFFE0
FFFFC0
ENDCHAR
STARTCHAR 00CA
ENCODING 202
SWIDTH 647 0
DWIDTH 22 0
BBX 19 30 2 0
BITMAP
00C000
01E000
03F000
07F800
07F800
07F800
073800
000000
000000
000000
000000
FFFFC0
FFFFE0
FFFFE0
FFFFE0
F003E0
F001E0
F003E0
FFFFE0
FFFFE0
FFFFE0
FFFFC0
F00000
F00000
F00000
F00000
FFFFC0
FFFFE0
FFFFE0
FFFFC0
ENDCHAR
STARTCHAR 00CB
ENCODING 203
SWIDTH 647 0
DWIDTH 22 0
BBX 18 26 2 0
BITMAP
0E1C00
0F1E00
0F1E00
0E1C00
000000
000000
000000
FFFFC0
FFFFC0
FFFFC0
FFFFC0
F00000
F00000
F00000
FFFFC0
FFFFC0
FFFFC0
FFFFC0
F00000
F00000
F00000
F00000
FFFFC0
FFFFC0
FFFFC0
FFFFC0
ENDCHAR
STARTCHAR 00CC
ENCODING 204
SWIDTH 264 0
DWIDTH 9 0
BBX 6 29 2 0
BITMAP
60
F0
F8
FC
7C
38
00
00
00
00
70
78
78
78
78
78
78
78
78
78
78
78
78
78
78
78
78
78
70
ENDCHAR
STARTCHAR 00CD
ENCODING 205
SWIDTH 264 0
DWIDTH 9 0
BBX 6 29 2 0
BITMAP
18
3C
7C
F8
F0
E0
00
00
00
00
70
78
78
78
78
78
78
78
78
78
78
78
78
78
78
78
78
78
70
ENDCHAR
STARTCHAR 00CE
ENCODING 206
SWIDTH 382 0
DWIDTH 13 0
BBX 9 30 2 0
BITMAP
0800
1C00
3E00
7F00
FF80
F780
E700
0000
0000
0000
0000
1C00
1E00
1E00
1E00
1E00
1E00
1E00
1E00
1E00
1E00
1E00
1E00
1E00
1E00
1E00
1E00
1E00
1E00
1C00
ENDCHAR
STARTCHAR 00CF
ENCODING 207
SWIDTH 411 0
DWIDTH 14 0
BBX 12 26 2 0
BITMAP
E0E0
F0F0
F0F0
E0E0
0000
0000
0000
0E00
0F00
0F00
0F00
0F00
0F00
0F00
0F00
0F00
0F00
0F00
0F00
0F00
0F00
0F00
0F00
0F00
0F00
0E00
ENDCHAR
STARTCHAR 00D1
ENCODING 209
SWIDTH 647 0
DWIDTH 22 0
BBX 19 29 2 0
BITMAP
038C00
07FE00
0FFE00
1FFC00
1FF800
0E7000
000000
000000
000000
000000
FFFFC0
FFFFE0
FFFFE0
FFFFE0
F003E0
F001E0
F001E0
F001E0
F001E0
F001E0
F001E0
F001E0
F001E0
F001E0
F001E0
F001E0
F001E0
F001E0
E001C0
ENDCHAR
STARTCHAR 00D2
ENCODING 210
SWIDTH 647 0
DWIDTH 22 0
BBX 19 29 2 0
BITMAP
018000
03C000
03E000
03F000
01F000
00F000
000000
000000
000000
000000
FFFFC0
FFFFE0
FFFFE0
FFFFE0
F003E0
F001E0
F001E0
F001E0
F001E0
F001E0
F001E0
F001E0
F001E0
F001E0
F003E0
FFFFE0
FFFFE0
FFFFE0
FFFFC0
ENDCHAR
STARTCHAR 00D3
ENCODING 211
SWIDTH 647 0
DWIDTH 22 0
BBX 19 29 2 0
BITMAP
006000
00F000
01F000
03F000
03E000
03C000
000000
000000
000000
000000
FFFFC0
FFFFE0
FFFFE0
FFFFE0
F003E0
F001E0
F001E0
F001E0
F001E0
F001E0
F001E0
F001E0
F001E0
F001E0
F003E0
FFFFE0
FFFFE0
FFFFE0
FFFFC0
ENDCHAR
STARTCHAR 00D4
ENCODING 212
SWIDTH 647 0
DWIDTH 22 0
BBX 19 30 2 0
BITMAP
00C000
01E000
03F000
07F800
07F800
07F800
073800
000000
000000
000000
000000
FFFFC0
FFFFE0
FFFFE0
FFFFE0
F003E0
F001E0
F001E0
F001E0
F001E0
F001E0
F001E0
F001E0
F001E0
F001E0
F003E0
FFFFE0
FFFFE0
FFFFE0
FFFFC0
ENDCHAR
STARTCHAR 00D5
ENCODING 213
SWIDTH 647 0
DWIDTH 22 0
BBX 19 29 2 0
BITMAP
038C00
07FE00
0FFE00
1FFC00
1FF800
0E7000
000000
000000
000000
000000
FFFFC0
FFFFE0
FFFFE0
FFFFE0
F003E0
F001E0
F001E0
F001E0
F001E0
F001E0
F001E0
F001E0
F001E0
F001E0
F003E0
FFFFE0
FFFFE0
FFFFE0
FFFFC0
ENDCHAR
STARTCHAR 00D6
ENCODING 214
SWIDTH 647 0
DWIDTH 22 0
BBX 19 26 2 0
BITMAP
0E1C00
0F1E00
0F1E00
0E1C00
000000
000000
000000
FFFFC0
FFFFE0
FFFFE0
FFFFE0
F003E0
F001E0
F001E0
F001E0
F001E0
F001E0
F001E0
F001E0
F001E0
F001E0
F003E0
FFFFE0
FFFFE0
FFFFE0
FFFFC0
ENDCHAR
STARTCHAR 00D8
ENCODING 216
SWIDTH 647 0
DWIDTH 22 0
BBX 19 19 2 0
BITMAP
FFFFC0
FFFFE0
FFFFE0
FFFFE0
FF03E0
FF01E0
FF01E0
FE01E0
F001E0
F001E0
F003E0
F01FE0
F01FE0
F01FE0
F03FE0
FFFFE0
FFFFE0
FFFFE0
FFFFC0
ENDCHAR
STARTCHAR 00D9
ENCODING 217
SWIDTH 647 0
DWIDTH 22 0
BBX 19 29 2 0
BITMAP
018000
03C000
03E000
03F000
01F000
00F000
000000
000000
000000
000000
E001C0
F001E0
F001E0
F001E0
F001E0
F001E0
F001E0
F001E0
F001E0
F001E0
F001E0
F001E0
F001E0
F001E0
F003E0
FFFFE0
FFFFE0
FFFFE0
FFFFC0
ENDCHAR
STARTCHAR 00DA
ENCODING 218
SWIDTH 647 0
DWIDTH 22 0
BBX 19 29 2 0
BITMAP
006000
00F000
01F000
03F000
03E000
03C000
000000
000000
000000
000000
E001C0
F001E0
F001E0
F001E0
F001E0
F001E0
F001E0
F001E0
F001E0
F001E0
F001E0
F001E0
F001E0
F001E0
F003E0
FFFFE0
FFFFE0
FFFFE0
FFFFC0
ENDCHAR
STARTCHAR 00DB
ENCODING 219
SWIDTH 647 0
DWIDTH 22 0
BBX 19 30 2 0
BITMAP
00C000
01E000
03F000
07F800
07F800
07F800
073800
000000
000000
000000
000000
E001C0
F001E0
F001E0
F001E0
F001E0
F001E0
F001E0
F001E0
F001E0
F001E0
F001E0
F001E0
F001E0
F001E0
F003E0
FFFFE0
FFFFE0
FFFFE0
FFFFC0
ENDCHAR
STARTCHAR 00DC
ENCODING 220
SWIDTH 647 0
DWIDTH 22 0
BBX 19 26 2 0
BITMAP
0E1C00
0F1E00
0F1E00
0E1C00
000000
000000
000000
E001C0
F001E0
F001E0
F001E0
F001E0
F001E0
F001E0
F001E0
F001E0
F001E0
F001E0
F001E0
F001E0
F001E0
F003E0
FFFFE0
FFFFE0
FFFFE0
FFFFC0
ENDCHAR
STARTCHAR 00DF
ENCODING 223
SWIDTH 647 0
DWIDTH 22 0
BBX 19 19 2 0
BITMAP
FFFFC0
FFFFE0
FFFFE0
FFFFE0
F003E0
F001E0
F001E0
F003E0
F1FFE0
F1FFE0
F1FFE0
F1FFE0
F003E0
F001E0
F003E0
F1FFE0
F1FFE0
F1FFE0
E1FFC0
ENDCHAR
STARTCHAR 00E0
ENCODING 224
SWIDTH 647 0
DWIDTH 22 0
BBX 19 29 2 0
BITMAP
018000
03C000
03E000
03F000
01F000
00F000
000000
000000
000000
000000
FFFFC0
FFFFE0
FFFFE0
FFFFE0
0003E0
0001E0
0003E0
FFFFE0
FFFFE0
FFFFE0
FFFFE0
F003E0
F001E0
F001E0
F003E0
FFFFE0
FFFFE0
FFFFE0
FFFFC0
ENDCHAR
STARTCHAR 00E1
ENCODING 225
SWIDTH 647 0
DWIDTH 22 0
BBX 19 29 2 0
BITMAP
006000
00F000
01F000
03F000
03E000
03C000
000000
000000
000000
000000
FFFFC0
FFFFE0
FFFFE0
FFFFE0
0003E0
0001E0
0003E0
FFFFE0
FFFFE0
FFFFE0
FFFFE0
F003E0
F001E0
F001E0
F003E0
FFFFE0
FFFFE0
FFFFE0
FFFFC0
ENDCHAR
STARTCHAR 00E2
ENCODING 226
SWIDTH 647 0
DWIDTH 22 0
BBX 19 30 2 0
BITMAP
00C000
01E000
03F000
07F800
07F800
07F800
073800
000000
000000
000000
000000
FFFFC0
FFFFE0
FFFFE0
FFFFE0
0003E0
0001E0
0003E0
FFFFE0
FFFFE0
FFFFE0
FFFFE0
F003E0
F001E0
F001E0
F003E0
FFFFE0
FFFFE0
FFFFE0
FFFFC0
ENDCHAR
STARTCHAR 00E3
ENCODING 227
SWIDTH 647 0
DWIDTH 22 0
BBX 19 29 2 0
BITMAP
038C00
07FE00
0FFE00
1FFC00
1FF800
0E7000
000000
000000
000000
000000
FFFFC0
FFFFE0
FFFFE0
FFFFE0
0003E0
0001E0
0003E0
FFFFE0
FFFFE0
FFFFE0
FFFFE0
F003E0
F001E0
F001E0
F003E0
FFFFE0
FFFFE0
FFFFE0
FFFFC0
ENDCHAR
STARTCHAR 00E4
ENCODING 228
SWIDTH 647 0
DWIDTH 22 0
BBX 19 26 2 0
BITMAP
0E1C00
0F1E00
0F1E00
0E1C00
000000
000000
000000
FFFFC0
FFFFE0
FFFFE0
FFFFE0
0003E0
0001E0
0003E0
FFFFE0
FFFFE0
FFFFE0
FFFFE0
F003E0
F001E0
F001E0
F003E0
FFFFE0
FFFFE0
FFFFE0
FFFFC0
ENDCHAR
STARTCHAR 00E5
ENCODING 229
SWIDTH 647 0
DWIDTH 22 0
BBX 19 34 2 0
BITMAP
0FFC00
0FFE00
0FFE00
0FFE00
0F3E00
0F1E00
0F1E00
0F3E00
0FFE00
0FFE00
0FFE00
0FFC00
000000
000000
000000
FFFFC0
FFFFE0
FFFFE0
FFFFE0
0003E0
0001E0
0003E0
FFFFE0
FFFFE0
FFFFE0
FFFFE0
F003E0
F001E0
F001E0
F003E0
FFFFE0
FFFFE0
FFFFE0
FFFFC0
ENDCHAR
STARTCHAR 00E6
ENCODING 230
SWIDTH 647 0
DWIDTH 22 0
BBX 19 19 2 0
BITMAP
FFFFC0
FFFFE0
FFFFE0
FFFFE0
01F3E0
00F1E0
00F1E0
01F3E0
FFFFE0
FFFFE0
FFFFE0
FFFFC0
F1F000
F0F000
F1F000
FFFFC0
FFFFE0
FFFFE0
FFFFC0
ENDCHAR
STARTCHAR 00E7
ENCODING 231
SWIDTH 647 0
DWIDTH 22 0
BBX 18 27 2 -8
BITMAP
FFFFC0
FFFFC0
FFFFC0
FFFFC0
F00000
F00000
F00000
F00000
F00000
F00000
F00000
F00000
F00000
F00000
F00000
FFFFC0
FFFFC0
FFFFC0
FFFFC0
003E00
001E00
001E00
003E00
01FE00
01FE00
01FE00
01FC00
ENDCHAR
STARTCHAR 00E8
ENCODING 232
SWIDTH 647 0
DWIDTH 22 0
BBX 19 29 2 0
BITMAP
018000
03C000
03E000
03F000
01F000
00F000
000000
000000
000000
000000
FFFFC0
FFFFE0
FFFFE0
FFFFE0
F003E0
F001E0
F003E0
FFFFE0
FFFFE0
FFFFE0
FFFFC0
F00000
F00000
F00000
F00000
FFFFC0
FFFFE0
FFFFE0
FFFFC0
ENDCHAR
STARTCHAR 00E9
ENCODING 233
SWIDTH 647 0
DWIDTH 22 0
BBX 19 29 2 0
BITMAP
006000
00F000
01F000
03F000
03E000
03C000
000000
000000
000000
000000
FFFFC0
FFFFE0
FFFFE0
FFFFE0
F003E0
F001E0
F003E0
FFFFE0
FFFFE0
FFFFE0
FFFFC0
F00000
F00000
F00000
F00000
FFFFC0
FFFFE0
FFFFE0
FFFFC0
ENDCHAR
STARTCHAR 00EA
ENCODING 234
SWIDTH 647 0
DWIDTH 22 0
BBX 19 30 2 0
BITMAP
00C000
01E000
03F000
07F800
07F800
07F800
073800
000000
000000
000000
000000
FFFFC0
FFFFE0
FFFFE0
FFFFE0
F003E0
F001E0
F003E0
FFFFE0
FFFFE0
FFFFE0
FFFFC0
F00000
F00000
F00000
F00000
FFFFC0
FFFFE0
FFFFE0
FFFFC0
ENDCHAR
STARTCHAR 00EB
ENCODING 235
SWIDTH 647 0
DWIDTH 22 0
BBX 19 26 2 0
BITMAP
0E1C00
0F1E00
0F1E00
0E1C00
000000
000000
000000
FFFFC0
FFFFE0
FFFFE0
FFFFE0
F003E0
F001E0
F003E0
FFFFE0
FFFFE0
FFFFE0
FFFFC0
F00000
F00000
F00000
F00000
FFFFC0
FFFFE0
FFFFE0
FFFFC0
ENDCHAR
STARTCHAR 00EC
ENCODING 236
SWIDTH 264 0
DWIDTH 9 0
BBX 6 29 2 0
BITMAP
60
F0
F8
FC
7C
38
00
00
00
00
70
78
78
78
78
78
78
78
78
78
78
78
78
78
78
78
78
78
70
ENDCHAR
STARTCHAR 00ED
ENCODING 237
SWIDTH 264 0
DWIDTH 9 0
BBX 6 29 2 0
BITMAP
18
3C
7C
F8
F0
E0
00
00
00
00
70
78
78
78
78
78
78
78
78
78
78
78
78
78
78
78
78
78
70
ENDCHAR
STARTCHAR 00EE
ENCODING 238
SWIDTH 382 0
DWIDTH 13 0
BBX 9 30 2 0
BITMAP
0800
1C00
3E00
7F00
FF80
F780
E700
0000
0000
0000
0000
1C00
1E00
1E00
1E00
1E00
1E00
1E00
1E00
1E00
1E00
1E00
1E00
1E00
1E00
1E00
1E00
1E00
1E00
1C00
ENDCHAR
STARTCHAR 00EF
ENCODING 239
SWIDTH 411 0
DWIDTH 14 0
BBX 12 26 2 0
BITMAP
E0E0
F0F0
F0F0
E0E0
0000
0000
0000
0E00
0F00
0F00
0F00
0F00
0F00
0F00
0F00
0F00
0F00
0F00
0F00
0F00
0F00
0F00
0F00
0F00
0F00
0E00
ENDCHAR
STARTCHAR 00F1
ENCODING 241
SWIDTH 647 0
DWIDTH 22 0
BBX 19 29 2 0
BITMAP
038C00
07FE00
0FFE00
1FFC00
1FF800
0E7000
000000
000000
000000
000000
FFFFC0
FFFFE0
FFFFE0
FFFFE0
F003E0
F001E0
F001E0
F001E0
F001E0
F001E0
F001E0
F001E0
F001E0
F001E0
F001E0
F001E0
F001E0
F001E0
E001C0
ENDCHAR
STARTCHAR 00F2
ENCODING 242
SWIDTH 647 0
DWIDTH 22 0
BBX 19 29 2 0
BITMAP
018000
03C000
03E000
03F000
01F000
00F000
000000
000000
000000
000000
FFFFC0
FFFFE0
FFFFE0
FFFFE0
F003E0
F001E0
F001E0
F001E0
F001E0
F001E0
F001E0
F001E0
F001E0
F001E0
F003E0
FFFFE0
FFFFE0
FFFFE0
FFFFC0
ENDCHAR
STARTCHAR 00F3
ENCODING 243
SWIDTH 647 0
DWIDTH 22 0
BBX 19 29 2 0
BITMAP
006000
00F000
01F000
03F000
03E000
03C000
000000
000000
000000
000000
FFFFC0
FFFFE0
FFFFE0
FFFFE0
F003E0
F001E0
F001E0
F001E0
F001E0
F001E0
F001E0
F001E0
F001E0
F001E0
F003E0
FFFFE0
FFFFE0
FFFFE0
FFFFC0
ENDCHAR
STARTCHAR 00F4
ENCODING 244
SWIDTH 647 0
DWIDTH 22 0
BBX 19 30 2 0
BITMAP
00C000
01E000
03F000
07F800
07F800
07F800
073800
000000
000000
000000
000000
FFFFC0
FFFFE0
FFFFE0
FFFFE0
F003E0
F001E0
F001E0
F001E0
F001E0
F001E0
F001E0
F001E0
F001E0
F001E0
F003E0
FFFFE0
FFFFE0
FFFFE0
FFFFC0
ENDCHAR
STARTCHAR 00F5
ENCODING 245
SWIDTH 647 0
DWIDTH 22 0
BBX 19 29 2 0
BITMAP
038C00
07FE00
0FFE00
1FFC00
1FF800
0E7000
000000
000000
000000
000000
FFFFC0
FFFFE0
FFFFE0
FFFFE0
F003E0
F001E0
F001E0
F001E0
F001E0
F001E0
F001E0
F001E0
F001E0
F001E0
F003E0
FFFFE0
FFFFE0
FFFFE0
FFFFC0
ENDCHAR
STARTCHAR 00F6
ENCODING 246
SWIDTH 647 0
DWIDTH 22 0
BBX 19 26 2 0
BITMAP
0E1C00
0F1E00
0F1E00
0E1C00
000000
000000
000000
FFFFC0
FFFFE0
FFFFE0
FFFFE0
F003E0
F001E0
F001E0
F001E0
F001E0
F001E0
F001E0
F001E0
F001E0
F001E0
F003E0
FFFFE0
FFFFE0
FFFFE0
FFFFC0
ENDCHAR
STARTCHAR 00F8
ENCODING 248
SWIDTH 647 0
DWIDTH 22 0
BBX 19 19 2 0
BITMAP
FFFFC0
FFFFE0
FFFFE0
FFFFE0
FF03E0
FF01E0
FF01E0
FE01E0
F001E0
F001E0
F003E0
F01FE0
F01FE0
F01FE0
F03FE0
FFFFE0
FFFFE0
FFFFE0
FFFFC0
ENDCHAR
STARTCHAR 00F9
ENCODING 249
SWIDTH 647 0
DWIDTH 22 0
BBX 19 29 2 0
BITMAP
018000
03C000
03E000
03F000
01F000
00F000
000000
000000
000000
000000
E001C0
F001E0
F001E0
F001E0
F001E0
F001E0
F001E0
F001E0
F001E0
F001E0
F001E0
F001E0
F001E0
F001E0
F003E0
FFFFE0
FFFFE0
FFFFE0
FFFFC0
ENDCHAR
STARTCHAR 00FA
ENCODING 250
SWIDTH 647 0
DWIDTH 22 0
BBX 19 29 2 0
BITMAP
006000
00F000
01F000
03F000
03E000
03C000
000000
000000
000000
000000
E001C0
F001E0
F001E0
F001E0
F001E0
F001E0
F001E0
F001E0
F001E0
F001E0
F001E0
F001E0
F001E0
F001E0
F003E0
FFFFE0
FFFFE0
FFFFE0
FFFFC0
ENDCHAR
STARTCHAR 00FB
ENCODING 251
SWIDTH 647 0
DWIDTH 22 0
BBX 19 30 2 0
BITMAP
00C000
01E000
03F000
07F800
07F800
07F800
073800
000000
000000
000000
000000
E001C0
F001E0
F001E0
F001E0
F001E0
F001E0
F001E0
F001E0
F001E0
F001E0
F001E0
F001E0
F001E0
F001E0
F003E0
FFFFE0
FFFFE0
FFFFE0
FFFFC0
ENDCHAR
STARTCHAR 00FC
ENCODING 252
SWIDTH 647 0
DWIDTH 22 0
BBX 19 26 2 0
BITMAP
0E1C00
0F1E00
0F1E00
0E1C00
000000
000000
000000
E001C0
F001E0
F001E0
F001E0
F001E0
F001E0
F001E0
F001E0
F001E0
F001E0
F001E0
F001E0
F001E0
F001E0
F003E0
FFFFE0
FFFFE0
FFFFE0
FFFFC0
ENDCHAR
STARTCHAR 00FF
ENCODING 255
SWIDTH 647 0
DWIDTH 22 0
BBX 20 34 2 -8
BITMAP
0E0E00
0F0F00
0F0F00
0E0E00
000000
000000
000000
E000E0
F000F0
F000F0
F000F0
F000F0
F000F0
F000F0
F000F0
F000F0
F000F0
F000F0
F000F0
F000F0
F000F0
F001F0
FFFFF0
FFFFF0
FFFFF0
FFFFE0
01F000
00F000
00F000
00F000
00F000
00F000
00F000
00E000
ENDCHAR
STARTCHAR 0152
ENCODING 338
SWIDTH 647 0
DWIDTH 22 0
BBX 18 19 2 0
BITMAP
FFFFC0
FFFFC0
FFFFC0
FFFFC0
F3E000
F1E000
F1E000
F1E000
F1FFC0
F1FFC0
F1FFC0
F1FFC0
F1E000
F1E000
F3E000
FFFFC0
FFFFC0
FFFFC0
FFFFC0
ENDCHAR
STARTCHAR 0153
ENCODING 339
SWIDTH 647 0
DWIDTH 22 0
BBX 19 19 2 0
BITMAP
FFFFC0
FFFFE0
FFFFE0
FFFFE0
F3E3E0
F1E1E0
F1E1E0
F1E3E0
F1FFE0
F1FFE0
F1FFE0
F1FFC0
F1E000
F1E000
F3E000
FFFFC0
FFFFE0
FFFFE0
FFFFC0
ENDCHAR
STARTCHAR 0178
ENCODING 376
SWIDTH 647 0
DWIDTH 22 0
BBX 20 26 2 0
BITMAP
0E0E00
0F0F00
0F0F00
0E0E00
000000
000000
000000
E000E0
F000F0
F000F0
F000F0
F000F0
F000F0
F000F0
F000F0
F000F0
F000F0
F001F0
FFFFF0
FFFFF0
FFFFF0
FFFFE0
01F000
00F000
00F000
00E000
ENDCHAR
STARTCHAR 0192
ENCODING 402
SWIDTH 647 0
DWIDTH 22 0
BBX 18 27 2 -8
BITMAP
0FFFC0
0FFFC0
0FFFC0
0FFFC0
0F0000
0F0000
0F0000
1F0000
FFE000
FFF000
FFF000
FFE000
1F0000
0F0000
0F0000
0F0000
0F0000
0F0000
0F0000
0F0000
0F0000
0F0000
1F0000
FF0000
FF0000
FF0000
FE0000
ENDCHAR
STARTCHAR 02C6
ENCODING 710
SWIDTH 382 0
DWIDTH 13 0
BBX 9 7 2 22
BITMAP
0800
1C00
3E00
7F00
FF80
F700
6700
ENDCHAR
STARTCHAR 02DC
ENCODING 732
SWIDTH 441 0
DWIDTH 15 0
BBX 11 6 2 22
BITMAP
18C0
3FE0
7FE0
FFC0
FF80
E300
ENDCHAR
STARTCHAR 03BC
ENCODING 956
SWIDTH 647 0
DWIDTH 22 0
BBX 18 23 2 -4
BITMAP
E01C00
F01E00
F01E00
F01E00
F01E00
F01E00
F01E00
F01E00
F01E00
F01E00
F01E00
F01E00
F01E00
F01E00
F03E00
FFFFC0
FFFFC0
FFFFC0
FFFFC0
F00000
F00000
F00000
E00000
ENDCHAR
STARTCHAR 2010
ENCODING 8208
SWIDTH 411 0
DWIDTH 14 0
BBX 11 3 2 8
BITMAP
FFE0
FFE0
FFE0
ENDCHAR
STARTCHAR 2013
ENCODING 8211
SWIDTH 352 0
DWIDTH 12 0
BBX 9 3 2 8
BITMAP
FF00
FF80
FF00
ENDCHAR
STARTCHAR 2014
ENCODING 8212
SWIDTH 647 0
DWIDTH 22 0
BBX 18 3 2 8
BITMAP
FFFFC0
FFFFC0
FFFFC0
ENDCHAR
STARTCHAR 2018
ENCODING 8216
SWIDTH 323 0
DWIDTH 11 0
BBX 8 8 2 11
BITMAP
E0
F0
F0
F0
FE
FF
FF
FE
ENDCHAR
STARTCHAR 2019
ENCODING 8217
SWIDTH 323 0
DWIDTH 11 0
BBX 8 8 2 11
BITMAP
FE
FF
FF
FF
1F
0F
0F
0E
ENDCHAR
STARTCHAR 201A
ENCODING 8218
SWIDTH 323 0
DWIDTH 11 0
BBX 8 8 2 0
BITMAP
0E
0F
0F
1F
FF
FF
FF
FE
ENDCHAR
STARTCHAR 201C
ENCODING 8220
SWIDTH 500 0
DWIDTH 17 0
BBX 14 8 2 11
BITMAP
E038
F03C
F03C
F03C
FE3C
FF3C
FF3C
FE38
ENDCHAR
STARTCHAR 201D
ENCODING 8221
SWIDTH 500 0
DWIDTH 17 0
BBX 14 8 2 11
BITMAP
E3F8
F3FC
F3FC
F3FC
F07C
F03C
F03C
E038
ENDCHAR
STARTCHAR 201E
ENCODING 8222
SWIDTH 647 0
DWIDTH 22 0
BBX 19 8 2 0
BITMAP
0E01C0
0F01E0
0F01E0
1F03E0
FF1FE0
FF1FE0
FF1FE0
FE1FC0
ENDCHAR
STARTCHAR 2020
ENCODING 8224
SWIDTH 411 0
DWIDTH 14 0
BBX 12 19 2 0
BITMAP
0E00
0F00
0F00
1E00
FFC0
FFF0
FFF0
FFE0
1F00
0F00
0F00
0F00
0F00
0F00
0F00
0F00
0F00
0F00
0E00
ENDCHAR
STARTCHAR 2021
ENCODING 8225
SWIDTH 411 0
DWIDTH 14 0
BBX 12 19 2 0
BITMAP
0E00
0F00
0F00
1F00
FFE0
FFF0
FFF0
FFE0
1F00
0F00
1F00
FFE0
FFF0
FFF0
FFE0
1F00
0F00
0F00
0E00
ENDCHAR
STARTCHAR 2022
ENCODING 8226
SWIDTH 323 0
DWIDTH 11 0
BBX 8 7 2 6
BITMAP
FE
FF
FF
FF
FF
FF
FE
ENDCHAR
STARTCHAR 2026
ENCODING 8230
SWIDTH 647 0
DWIDTH 22 0
BBX 20 4 2 0
BITMAP
E0E0E0
F0F0F0
F0F0F0
E0E0E0
ENDCHAR
STARTCHAR 2030
ENCODING 8240
SWIDTH 764 0
DWIDTH 26 0
BBX 23 19 2 0
BITMAP
E01C00
F01E00
F01E00
E01E00
001E00
001E00
003E00
0FFE00
0FFE00
0FFE00
0FFC00
0F0000
0F0000
0F0000
0F0000
0F1C1C
0F1E1E
0F1E1E
0E1C1C
ENDCHAR
STARTCHAR 2039
ENCODING 8249
SWIDTH 294 0
DWIDTH 10 0
BBX 6 9 2 5
BITMAP
18
3C
7C
FC
F8
FC
7C
3C
18
ENDCHAR
STARTCHAR 203A
ENCODING 8250
SWIDTH 294 0
DWIDTH 10 0
BBX 7 9 2 4
BITMAP
60
F0
F8
FC
7E
FC
F8
F0
60
ENDCHAR
STARTCHAR 2044
ENCODING 8260
SWIDTH 617 0
DWIDTH 21 0
BBX 17 19 2 0
BITMAP
000100
000380
000780
000F80
001F00
003E00
007C00
00F800
01F000
03E000
07C000
0F8000
1F0000
3E0000
7C0000
F80000
F00000
E00000
600000
ENDCHAR
STARTCHAR 2122
ENCODING 8482
SWIDTH 500 0
DWIDTH 17 0
BBX 14 5 2 13
BITMAP
FEF8
30EC
10A4
10A4
10A4
ENDCHAR
STARTCHAR 2219
ENCODING 8729
SWIDTH 205 0
DWIDTH 7 0
BBX 4 3 2 8
BITMAP
E0
F0
E0
ENDCHAR
STARTCHAR 2264
ENCODING 8804
SWIDTH 323 0
DWIDTH 11 0
BBX 8 15 2 2
BITMAP
0C
1E
3E
7E
F8
F8
7C
3E
1E
0C
00
FE
FF
FF
FE
ENDCHAR
STARTCHAR 2265
ENCODING 8805
SWIDTH 323 0
DWIDTH 11 0
BBX 8 15 2 2
BITMAP
60
F0
F8
FC
3E
3E
7C
F8
F0
60
00
FE
FF
FF
FE
ENDCHAR
STARTCHAR F000
ENCODING 61440
SWIDTH 647 0
DWIDTH 22 0
BBX 18 19 2 0
BITMAP
E1E1C0
E1E1C0
E1E1C0
E1E1C0
1E1C00
1E1E00
1E1E00
0C0C00
E1E1C0
E1E1C0
E1E1C0
0C0C00
1E1E00
1E1E00
1E1E00
E0C1C0
E1E1C0
E1E1C0
E1E1C0
ENDCHAR
ENDFONT
